<svg width="16" height="14" viewBox="0 0 16 14" fill="none" xmlns="http://www.w3.org/2000/svg">
<path d="M4.46562 3.46487C6.40937 1.52112 9.55 1.51175 11.5063 3.43362L10.2188 4.718C10.0031 4.93362 9.94062 5.2555 10.0562 5.53675C10.1719 5.818 10.4469 5.99925 10.75 5.99925H14.4844H14.75C15.1656 5.99925 15.5 5.66487 15.5 5.24925V1.24925C15.5 0.946122 15.3188 0.671122 15.0375 0.555497C14.7563 0.439872 14.4344 0.502372 14.2188 0.717997L12.9187 2.018C10.1812 -0.685128 5.77187 -0.675753 3.05 2.04925C2.2875 2.81175 1.7375 3.70862 1.4 4.668C1.21562 5.18987 1.49063 5.75862 2.00938 5.943C2.52813 6.12737 3.1 5.85237 3.28437 5.33362C3.525 4.65237 3.91562 4.01175 4.46562 3.46487ZM0.5 8.74925V8.98675V9.00862V12.7492C0.5 13.0524 0.68125 13.3274 0.9625 13.443C1.24375 13.5586 1.56562 13.4961 1.78125 13.2805L3.08125 11.9805C5.81875 14.6836 10.2281 14.6742 12.95 11.9492C13.7125 11.1867 14.2656 10.2899 14.6031 9.33362C14.7875 8.81175 14.5125 8.243 13.9937 8.05862C13.475 7.87425 12.9031 8.14925 12.7188 8.668C12.4781 9.34925 12.0875 9.98987 11.5375 10.5367C9.59375 12.4805 6.45312 12.4899 4.49687 10.568L5.78125 9.2805C5.99687 9.06487 6.05937 8.743 5.94375 8.46175C5.82812 8.1805 5.55312 7.99925 5.25 7.99925H1.5125H1.49063H1.25C0.834375 7.99925 0.5 8.33362 0.5 8.74925Z" fill="#1DB988"/>
</svg>
